Coordinates
version=1
nRows=22
nColumns=24
inDegrees=yes

Units are S.I. units (second, meters, Newtons, ...)
If the header above contains a line with 'inDegrees', this indicates whether rotational values are in degrees (yes) or radians (no).

endheader
time	pelvis_tilt	pelvis_list	pelvis_rotation	pelvis_tx	pelvis_ty	pelvis_tz	hip_flexion_r	hip_adduction_r	hip_rotation_r	knee_angle_r	ankle_angle_r	subtalar_angle_r	mtp_angle_r	hip_flexion_l	hip_adduction_l	hip_rotation_l	knee_angle_l	ankle_angle_l	subtalar_angle_l	mtp_angle_l	lumbar_extension	lumbar_bending	lumbar_rotation
      0.00000000	      9.56725084	      2.05566291	   -178.36784077	      0.21996580	      0.85018609	     -1.19943702	     14.15033548	    -10.26505692	    -33.65411703	     -9.98503838	      0.34417947	     10.71534627	      0.00000000	     15.02776184	    -13.74599522	    -29.38577024	     -9.84672022	      1.72855336	     17.69102874	      0.00000000	      5.25459611	      1.56597591	     -3.57419238
      0.00500000	      9.53697556	      1.99782391	   -178.35373363	      0.21979754	      0.85029050	     -1.19922351	     14.10309300	    -10.34414110	    -33.69058071	     -9.98437692	      0.33020256	     10.71536351	      0.00000000	     14.96279200	    -13.65652566	    -29.39531641	     -9.80377709	      1.68899138	     17.67659525	      0.00000000	      5.19775176	      1.56995565	     -3.72679126
      0.01000000	      9.51496975	      1.98170063	   -178.35436848	      0.21978663	      0.85021597	     -1.19927117	     14.08334487	    -10.37101497	    -33.73548550	    -10.01168301	      0.16953721	     10.72082253	      0.00000000	     14.93489958	    -13.64314104	    -29.37217255	     -9.80433162	      1.73268422	     17.66941476	      0.00000000	      5.23719208	      1.62255064	     -3.21583331
      0.01500000	      9.56390613	      2.02455570	   -178.37428447	      0.21982955	      0.85012516	     -1.19953051	     14.13120816	    -10.29589253	    -33.67833177	     -9.98484747	      0.17841651	     10.72835557	      0.00000000	     15.01128827	    -13.72260081	    -29.38809571	     -9.85357491	      1.74298438	     17.65603726	      0.00000000	      5.27653764	      1.63761567	     -3.21668014
      0.02000000	      9.56765727	      2.02637020	   -178.36752400	      0.21977262	      0.85011389	     -1.19956176	     14.12976650	    -10.29244033	    -33.67653621	     -9.98458300	      0.17929125	     10.72789041	      0.00000000	     15.01305331	    -13.72504426	    -29.38793560	     -9.85307137	      1.74357307	     17.65637347	      0.00000000	      5.27606914	      1.62674255	     -3.21553890
      0.02500000	      9.57031612	      2.03091638	   -178.36186434	      0.21971736	      0.85013094	     -1.19957969	     14.12899076	    -10.28509837	    -33.67690572	     -9.98537829	      0.18282089	     10.72613017	      0.00000000	     15.01371645	    -13.73036573	    -29.38698345	     -9.85144137	      1.74379614	     17.65653333	      0.00000000	      5.27775132	      1.61186362	     -3.20922797
      0.03000000	      9.57817802	      2.04740331	   -178.38406007	      0.21964730	      0.85015214	     -1.19956993	     14.14050752	    -10.26558720	    -33.68475899	     -9.99485478	      0.21078288	     10.70757234	      0.00000000	     15.01037653	    -13.75090065	    -29.38905663	     -9.85122730	      1.73694029	     17.65043655	      0.00000000	      5.29386680	      1.64397990	     -3.16221333
      0.03500000	      9.58831145	      2.05815390	   -178.39676190	      0.21961802	      0.85014830	     -1.19959450	     14.15471962	    -10.25198159	    -33.69173393	    -10.00246643	      0.19777217	     10.69730882	      0.00000000	     15.01748002	    -13.76717077	    -29.40203490	     -9.85861542	      1.73424361	     17.63741481	      0.00000000	      5.30358572	      1.65503243	     -3.13684642
      0.04000000	      9.59355685	      2.04665629	   -178.38690352	      0.21958261	      0.85012077	     -1.19961151	     14.14837809	    -10.26145735	    -33.67733331	     -9.99063543	      0.19245950	     10.70160740	      0.00000000	     15.02920855	    -13.75845705	    -29.40489791	     -9.87904449	      1.73882797	     17.63576338	      0.00000000	      5.30690168	      1.65486397	     -3.16930223
      0.04500000	      9.59820670	      2.04585395	   -178.37994668	      0.21953481	      0.85008810	     -1.19963663	     14.14675694	    -10.26209899	    -33.67418597	     -9.99040580	      0.18939154	     10.70239907	      0.00000000	     15.03127522	    -13.75841530	    -29.40202863	     -9.87873861	      1.74089731	     17.63785098	      0.00000000	      5.31247225	      1.64761141	     -3.16783515
      0.05000000	      9.60402291	      2.04496536	   -178.38029346	      0.21945339	      0.85011413	     -1.19962161	     14.14786373	    -10.26247771	    -33.67553524	     -9.98925499	      0.18718103	     10.70114122	      0.00000000	     15.02892299	    -13.75334461	    -29.40204519	     -9.87917005	      1.74037122	     17.63851211	      0.00000000	      5.31888451	      1.65712426	     -3.16833121
      0.05500000	      9.61468710	      2.05730925	   -178.38597099	      0.21939339	      0.85010883	     -1.19960890	     14.16331968	    -10.25208211	    -33.69273867	    -10.00345964	      0.18406711	     10.68994406	      0.00000000	     15.02360653	    -13.75971499	    -29.40630356	     -9.84791426	      1.74439414	     17.63701449	      0.00000000	      5.33686936	      1.67447618	     -3.15499718
      0.06000000	      9.62433418	      2.07318056	   -178.38887323	      0.21934217	      0.85011143	     -1.19962643	     14.17236168	    -10.23558781	    -33.70510867	    -10.00787871	      0.19151724	     10.68187758	      0.00000000	     15.03742927	    -13.78169372	    -29.40607968	     -9.86088584	      1.73024518	     17.62642506	      0.00000000	      5.35215781	      1.68554683	     -3.12813002
      0.06500000	      9.63279097	      2.06640520	   -178.36882666	      0.21930461	      0.85009885	     -1.19965095	     14.16281154	    -10.23939861	    -33.69577952	     -9.98527794	      0.19495056	     10.68023711	      0.00000000	     15.05156507	    -13.77272590	    -29.39848545	     -9.87258414	      1.73711464	     17.62642887	      0.00000000	      5.36119754	      1.67284044	     -3.16481413
      0.07000000	      9.64287540	      2.04758268	   -178.34654222	      0.21930141	      0.85006705	     -1.19965846	     14.15948363	    -10.26173068	    -33.69841718	     -9.97292998	      0.18456747	     10.67147002	      0.00000000	     15.06929463	    -13.75076479	    -29.38122960	     -9.88116590	      1.74339864	     17.63505730	      0.00000000	      5.36639950	      1.65443387	     -3.21450150
      0.07500000	      9.64524273	      2.04833321	   -178.33525320	      0.21923677	      0.85003991	     -1.19967136	     14.15510812	    -10.26262935	    -33.69638833	     -9.97654281	      0.18165558	     10.67149521	      0.00000000	     15.07047655	    -13.75107176	    -29.38054652	     -9.88033942	      1.74457510	     17.63550532	      0.00000000	      5.37267841	      1.65139484	     -3.21339255
      0.08000000	      9.65490342	      2.05425261	   -178.33286574	      0.21918170	      0.85002897	     -1.19963500	     14.16512195	    -10.26030536	    -33.70856934	     -9.98457381	      0.18347017	     10.66066876	      0.00000000	     15.07078648	    -13.75081179	    -29.36861772	     -9.85942403	      1.74593330	     17.64445594	      0.00000000	      5.38495132	      1.65559322	     -3.20497625
      0.08500000	      9.66534599	      2.06964416	   -178.33014480	      0.21910778	      0.85003508	     -1.19959418	     14.17795467	    -10.25115409	    -33.73068345	    -10.00115983	      0.18808371	     10.64589480	      0.00000000	     15.07672619	    -13.76181246	    -29.36212042	     -9.85286916	      1.73270740	     17.64218890	      0.00000000	      5.40611909	      1.66636640	     -3.17092826
      0.09000000	      9.66871837	      2.06949363	   -178.32874077	      0.21903949	      0.85002720	     -1.19957041	     14.17672564	    -10.25237522	    -33.73081034	    -10.00402581	      0.18736342	     10.64600626	      0.00000000	     15.07453121	    -13.75964262	    -29.36201003	     -9.85199610	      1.73274681	     17.64180446	      0.00000000	      5.41329265	      1.67431848	     -3.17237597
      0.09500000	      9.71215688	      2.06887287	   -178.30158917	      0.21905291	      0.84996202	     -1.19959765	     14.21453196	    -10.25789371	    -33.74347391	    -10.00227047	      0.17878408	     10.64039080	      0.00000000	     15.13723118	    -13.75577298	    -29.32780048	     -9.86700899	      1.72027604	     17.64144408	      0.00000000	      5.45742709	      1.66414143	     -3.22588915
      0.10000000	      9.71015819	      2.04218388	   -178.26529884	      0.21902455	      0.84996133	     -1.19957418	     14.18955420	    -10.28596264	    -33.72918819	     -9.97381348	      0.16416660	     10.64806079	      0.00000000	     15.14337478	    -13.72013225	    -29.31632814	     -9.87170625	      1.73397920	     17.64505280	      0.00000000	      5.45165315	      1.63086396	     -3.28174684
      0.10500000	      9.71260992	      2.04603477	   -178.26171676	      0.21895418	      0.84995066	     -1.19961723	     14.18837169	    -10.28131639	    -33.72976284	     -9.97823295	      0.16530828	     10.64709342	      0.00000000	     15.14189538	    -13.72638000	    -29.31571439	     -9.86698847	      1.73584031	     17.64525958	      0.00000000	      5.45811931	      1.62149358	     -3.28439081
